<svg xmlns="http://www.w3.org/2000/svg" viewBox="0 0 48 48" fill="none">
  <path d="M29.2 29.8c-6.1 4.5-15 6.9-22.6 6.9-10.7 0-20.3-4-27.6-10.6-.6-.5-.1-1.2.6-.8 7.9 4.6 17.6 7.3 27.6 7.3 6.8 0 14.2-1.4 21-4.3 1-.5 1.9.7 1 1.5z" transform="translate(12 5)" fill="#FF9900"/>
  <path d="M31.8 26.8c-.8-1-5.2-.5-7.2-.2-.6.1-.7-.4-.2-.8 3.5-2.5 9.3-1.8 10-.9.7.8-.2 6.5-3.5 9.2-.5.4-1 .2-.8-.4.7-1.9 2.5-5.8 1.7-6.9z" transform="translate(12 5)" fill="#FF9900"/>
  <path d="M24.7 10v-2.2c0-.3.2-.5.5-.5h9.2c.3 0 .5.2.5.5v1.9c0 .3-.2.6-.6 1.2l-4.8 6.8c1.8 0 3.6.2 5.2 1.1.4.2.5.5.5.8v2.4c0 .3-.3.7-.7.4-2.8-1.5-6.5-1.6-9.6 0-.3.2-.7-.1-.7-.4v-2.3c0-.4 0-1 .4-1.6l5.5-7.9h-4.8c-.3 0-.5-.2-.6-.5z" transform="translate(-5 5)" fill="#232F3E"/>
  <path d="M10.3 23h-2.8c-.3 0-.5-.2-.5-.5V7.8c0-.3.2-.5.5-.5h2.6c.3 0 .5.2.5.5v2h.1c.7-2 2-2.9 3.8-2.9 1.8 0 2.9 1 3.7 2.9.7-2 2.2-2.9 3.9-2.9 1.2 0 2.5.5 3.3 1.6.9 1.2.7 3 .7 4.5v9.5c0 .3-.2.5-.5.5h-2.8c-.3 0-.5-.2-.5-.5V13c0-.6.1-2.1-.1-2.7-.2-.9-.9-1.2-1.8-1.2-.7 0-1.5.5-1.8 1.3-.3.8-.3 2.1-.3 2.6v9.5c0 .3-.2.5-.5.5h-2.8c-.3 0-.5-.2-.5-.5V13c0-1.6.3-4-.2-4.9-.3-.9-1-1.2-1.7-1.2-1.6 0-2.1 1.8-2.1 3.3v12.3c0 .3-.2.5-.6.5z" transform="translate(-5 5)" fill="#232F3E"/>
</svg>
