<svg xmlns="http://www.w3.org/2000/svg" viewBox="0 0 48 48" fill="none">
  <path d="M8.5 19c-2.5 0-4.5 1.8-4.5 5.2 0 3.6 2.2 5.3 4.8 5.3 1.4 0 2.4-.3 3.2-.8v-2.3c-.7.5-1.6.8-2.7.8-1.7 0-2.8-1-2.9-2.5h6.2v-1c0-3.2-1.6-4.7-4.1-4.7zm1.7 4h-3.8c.2-1.4 1-2.1 2-2.1.9 0 1.7.6 1.8 2.1z" fill="#E53238"/>
  <path d="M19.8 19c-1.3 0-2.3.6-2.8 1.4V14h-2.6v15.3h2.4v-1c.5.8 1.4 1.2 2.6 1.2 2.4 0 4.2-2 4.2-5.3 0-3.2-1.5-5.2-3.8-5.2zm-.7 8.5c-1.3 0-2.2-1.2-2.2-3.2 0-2.1.9-3.2 2.2-3.2 1.3 0 2.1 1.1 2.1 3.2 0 2.1-.8 3.2-2.1 3.2z" fill="#0064D2"/>
  <path d="M30.7 19c-1.1 0-2 .4-2.6 1.2v-1h-2.5v11.6c0 2.5 1.3 3.7 3.5 3.7.8 0 1.5-.1 2-.3v-2.1c-.4.1-.8.2-1.2.2-.9 0-1.5-.5-1.5-1.6v-.3c.6.7 1.5 1.1 2.6 1.1 2.4 0 4-2 4-5.2 0-3.4-1.7-5.3-4.3-5.3zm-.8 8.5c-1.2 0-2.1-1.1-2.1-3.2 0-2.1.9-3.2 2.1-3.2 1.3 0 2.1 1.2 2.1 3.2 0 2.1-.8 3.2-2.1 3.2z" fill="#F5AF02"/>
  <path d="M43.7 19.2h-2.9l-2.5 6.9-2.6-6.9H33l4 9.4-2.2 5.2h2.8l5.5-14.6h.6z" fill="#86B817"/>
</svg>
