<svg xmlns="http://www.w3.org/2000/svg" viewBox="0 0 48 48" fill="none">
  <path d="M24 4C12.95 4 4 12.95 4 24s8.95 20 20 20 20-8.95 20-20S35.05 4 24 4z" fill="#F56400"/>
  <path d="M33 19.3v-1.6c0-.6-.2-.8-.8-.8h-1.5c-.1-1-.2-2.4-.2-3.7 0-.5-.3-.7-.7-.7-1.5.1-3.2.3-4.8.3-1.6 0-3.4-.2-5-.3-.5 0-.7.2-.7.7 0 1.3-.1 2.7-.2 3.7h-1.4c-.6 0-.8.2-.8.8v1.6c0 .6.2.8.8.8h1.3c0 2.5 0 5 .1 7.4 0 1.7.1 3.2.7 4.5.8 1.8 2.8 2.7 5.3 2.7 1.5 0 3-.3 4.2-.7.4-.1.6-.4.6-.8v-2c0-.5-.3-.7-.7-.6-.8.2-1.7.4-2.6.4-1.6 0-2.4-.7-2.4-2.6v-8.3h5c.6 0 .8-.2.8-.8z" fill="#fff"/>
</svg>
