<svg xmlns="http://www.w3.org/2000/svg" viewBox="0 0 48 48" fill="none">
  <path d="M41.4 9.8c0-.1-.1-.2-.2-.2-.1 0-2.8-.2-2.8-.2s-1.9-1.8-2.1-2c-.2-.2-.6-.1-.8-.1 0 0-.4.1-1.1.3-.7-1.9-1.8-3.6-3.9-3.6h-.2C29.3 2.8 28.1 2 27 2c-6.9.1-10.2 8.6-11.2 13 0 0-3 .9-3.1 1-.9.3-1 .3-1.1 1.2-.1.6-2.6 20-2.6 20l20.9 3.9 11.4-2.5S41.4 10 41.4 9.8zM31.1 8c-.5.2-1.1.3-1.7.5v-.4c0-1.2-.2-2.2-.5-2.9.9.2 1.6.9 2.2 2.8zm-3.5-2.5c.3.7.5 1.8.5 3.2v.2c-1.2.4-2.5.8-3.7 1.1.7-2.7 2-4 3.2-4.5zm-2-1.3c.2 0 .4.1.6.2-1.5.7-3.2 2.5-3.9 6.1l-3 .9c.8-2.9 3-7.2 6.3-7.2z" fill="#95BF47"/>
  <path d="M41.2 9.6c-.1 0-2.8-.2-2.8-.2s-1.9-1.8-2.1-2c-.1-.1-.2-.1-.3-.1l-1.6 32.8 11.4-2.5s-4.4-28.1-4.4-28.3c0 .1-.1 0-.2.3z" fill="#5E8E3E"/>
  <path d="M27 18.1l-1.3 4c-.5-.2-1-.5-1.7-.5-1.4 0-1.5.9-1.5 1.1 0 1.2 3.1 1.6 3.1 4.5 0 2.2-1.4 3.6-3.3 3.6-2.3 0-3.4-1.4-3.4-1.4l.6-2s1.2 1 2.2 1c.7 0 .9-.5.9-.9 0-1.5-2.5-1.6-2.5-4.2 0-2.2 1.5-4.3 4.7-4.3.8-.1 1.4.1 1.4.1h-.2z" fill="#fff"/>
</svg>
