<svg xmlns="http://www.w3.org/2000/svg" viewBox="0 0 48 48" fill="none">
  <rect x="4" y="8" width="40" height="28" rx="3" fill="#96588A"/>
  <path d="M10 17c0-1.1.9-2 2-2s2 .9 2 2v6c0 1.1-.9 2-2 2s-2-.9-2-2v-6zM16 17c0-1.1.9-2 2-2s2 .9 2 2v6c0 1.1-.9 2-2 2s-2-.9-2-2v-6z" fill="#fff"/>
  <path d="M22 20c0-2.8 2.2-5 5-5s5 2.2 5 5-2.2 5-5 5-5-2.2-5-5zm5-2c-1.1 0-2 .9-2 2s.9 2 2 2 2-.9 2-2-.9-2-2-2z" fill="#fff" fill-rule="evenodd"/>
  <path d="M34 20c0-2.8 2.2-5 5-5v10c-2.8 0-5-2.2-5-5z" fill="#fff"/>
</svg>
